<svg xmlns="http://www.w3.org/2000/svg" version="1.1" xmlns:xlink="http://www.w3.org/1999/xlink" xmlns:svgjs="http://svgjs.dev/svgjs" width="100%" height="100%" viewBox="0 0 1000 600"><rect width="1000" height="600" x="0" y="0" fill="#00214d"/><g><circle r="166.66666666666666" cx="422.48058573404955" cy="444.70272563452966" fill="#d4152f" transform="matrix(0.4886365543292967,0,0,0.4886365543292968,0,82.70198285054524)"/><path d="M345.7342830042636 369.70274316534534L499.22689474114264 369.70274316534534L499.22689474114264 418.9029867375147L479.12161002214503 418.9029867375147L479.12161002214503 387.8339440373114L433.8391636233151 387.8339440373114L433.8391636233151 501.54117362632513L462.2659710205685 501.54117362632513L462.2659710205685 519.7027450190149L382.6648362041142 519.7027450190149L382.6648362041142 501.54117362632513L411.3346077671561 501.54117362632513L411.3346077671561 387.8339440373114L365.8395677232612 387.8339440373114L365.8395677232612 418.9029867375147L345.7342830042636 418.9029867375147L345.7342830042636 369.70274316534534Z " fill="00000" transform="matrix(0.4886365543292967,0,0,0.4886365543292968,0,82.70198285054524)"/><path d="M672.4805827490541 372.6496431559125L819.9421665362715 372.6496431559125L819.9421665362715 419.91671195988806L800.6268581731655 419.91671195988806L800.6268581731655 390.0684333262664L757.1236485517287 390.0684333262664L757.1236485517287 499.30788122878766L784.4335105273591 499.30788122878766L784.4335105273591 516.7558486021071L707.9600615550011 516.7558486021071L707.9600615550011 499.30788122878766L735.5033411543548 499.30788122878766L735.5033411543548 390.0684333262664L691.7958911121601 390.0684333262664L691.7958911121601 419.91671195988806L672.4805827490541 419.91671195988806L672.4805827490541 372.6496431559125ZM862.3658196479879 395.3203298600415Q855.655062965942 395.3203298600415 851.0450648974061 391.76071109826063Q846.4058896259048 388.20109233647975 846.4058896259048 382.71577817898134L846.4058896259048 382.71577817898134Q846.4058896259048 377.0554008036905 851.0450648974061 373.37907323004794Q855.655062965942 369.7027456564054 862.3658196479879 369.7027456564054L862.3658196479879 369.7027456564054Q869.514234374515 369.7027456564054 874.1534096460164 373.37907323004794Q878.7634077145523 377.0554008036905 878.7634077145523 382.71577817898134L878.7634077145523 382.71577817898134Q878.7634077145523 388.20109233647975 874.1534096460164 391.76071109826063Q869.514234374515 395.3203298600415 862.3658196479879 395.3203298600415L862.3658196479879 395.3203298600415ZM874.970371329048 500.15402011478477L897.4659948153845 500.15402011478477L897.4659948153845 516.7558486021071L832.1382373758158 516.7558486021071L832.1382373758158 500.15402011478477L854.400443238429 500.15402011478477L854.400443238429 434.4177818337003L832.1382373758158 434.4177818337003L832.1382373758158 417.815953346378L874.970371329048 417.815953346378L874.970371329048 500.15402011478477ZM1100.5976818606177 500.15402011478477L1120.1464078474469 500.15402011478477L1120.1464078474469 516.7558486021071L1062.1713055551636 516.7558486021071L1062.1713055551636 500.15402011478477L1080.0277537699985 500.15402011478477L1080.0277537699985 457.9346074238264Q1080.0277537699985 447.0223335147604 1075.1843380777395 440.72005767423036Q1070.34092238548 434.4177818337003 1060.6832682039271 434.4177818337003L1060.6832682039271 434.4177818337003Q1052.0759933291292 434.4177818337003 1043.03106040985 440.07815920899117Q1034.015304693536 445.7385365842821 1025.4080298187382 456.2423296518322L1025.4080298187382 456.2423296518322L1025.4080298187382 457.2927089585872L1025.4080298187382 500.15402011478477L1043.4687184543313 500.15402011478477L1043.4687184543313 516.7558486021071L986.7482358895605 516.7558486021071L986.7482358895605 500.15402011478477L1004.8089245251537 500.15402011478477L1004.8089245251537 457.9346074238264Q1004.8089245251537 447.0223335147604 999.7612684121365 440.72005767423036Q994.7136122991194 434.4177818337003 985.0559581175663 434.4177818337003L985.0559581175663 434.4177818337003Q976.4486832427684 434.4177818337003 967.4037503234891 440.1948680208529Q958.3879946071753 445.9719542080054 949.547302108654 456.67998769631345L949.547302108654 456.67998769631345L949.547302108654 500.15402011478477L967.8414083679703 500.15402011478477L967.8414083679703 516.7558486021071L906.7151681554217 516.7558486021071L906.7151681554217 500.15402011478477L928.9773740180349 500.15402011478477L928.9773740180349 434.4177818337003L906.7151681554217 434.4177818337003L906.7151681554217 417.815953346378L949.547302108654 417.815953346378L949.547302108654 439.43626074375203Q958.796475448691 427.8820883694469 969.7379265607225 421.5798125289168Q980.6502004697884 415.27753668838676 992.4086132648514 415.27753668838676L992.4086132648514 415.27753668838676Q1004.4004436836378 415.27753668838676 1012.4825289050583 421.9007617615364Q1020.5646141264789 428.52398683468607 1023.7157520467439 441.3327789365041L1023.7157520467439 441.3327789365041Q1033.1691658075388 428.9324676762019 1044.4023889492246 422.1050021822943Q1055.63561209091 415.27753668838676 1067.8316829304545 415.27753668838676L1067.8316829304545 415.27753668838676Q1083.1788916902638 415.27753668838676 1091.873698173958 426.10227898855646Q1100.5976818606177 436.92702128872617 1100.5976818606177 457.2927089585872L1100.5976818606177 457.2927089585872L1100.5976818606177 500.15402011478477ZM1222.645921864957 488.5998477404797L1231.4866143634786 502.0505383075369Q1211.3251671143753 519.7027461016141 1185.4741652870157 519.7027461016141L1185.4741652870157 519.7027461016141Q1171.4107534576847 519.7027461016141 1158.8062017766247 513.8089511025998Q1146.2016500955642 507.9443333065511 1138.4113369037982 496.59440135300395Q1130.6502009149972 485.2444693994567 1130.6502009149972 469.69302021888944L1130.6502009149972 469.69302021888944Q1130.6502009149972 453.09119173156716 1138.615577324556 440.72005767423036Q1146.6101309370802 428.31974641392816 1159.4189230388984 421.6965213407785Q1172.2277151407166 415.0732962676288 1186.3203041730126 415.0732962676288L1186.3203041730126 415.0732962676288Q1198.7206154333148 415.0732962676288 1208.4658012237642 419.07057307389096Q1218.240164217179 423.06784988015306 1223.8130099835735 430.2162646066802Q1229.3858557499684 437.335502130242 1229.3858557499684 446.5846754702792L1229.3858557499684 446.5846754702792Q1229.3858557499684 460.44384687885224 1217.5107341430435 468.11745125875694Q1205.635612536119 475.7910556386616 1189.0337840487964 475.7910556386616L1189.0337840487964 475.7910556386616Q1178.3257505604888 475.7910556386616 1169.0765772204513 473.5735882132899Q1159.8565810833798 471.38529799088366 1150.4031673225845 467.1837807638636L1150.4031673225845 467.1837807638636L1150.4031673225845 469.08029895661565Q1150.4031673225845 478.94219355892665 1155.1298742029821 486.49908912696964Q1159.8565810833798 494.0559846950126 1167.8219574929385 498.0532615012748Q1175.8165111054627 502.0505383075369 1185.269924866258 502.0505383075369L1185.269924866258 502.0505383075369Q1206.685991842874 502.0505383075369 1222.645921864957 488.5998477404797L1222.645921864957 488.5998477404797ZM1187.7791643212836 431.47088433419316Q1176.4292323677364 431.47088433419316 1166.684046577287 437.97740059548113Q1156.9096835838723 444.48391685676916 1152.7081663568524 455.6296083895584L1152.7081663568524 455.6296083895584Q1168.6680963789354 461.28998576484935 1184.6280264010188 461.28998576484935L1184.6280264010188 461.28998576484935Q1195.1318194685687 461.28998576484935 1201.9592849624764 457.4094177704489Q1208.7867504563837 453.5288497760484 1208.7867504563837 446.5846754702792L1208.7867504563837 446.5846754702792Q1208.7867504563837 439.87391878823325 1202.9221326603351 435.67240156121323Q1197.0283376613206 431.47088433419316 1187.7791643212836 431.47088433419316L1187.7791643212836 431.47088433419316ZM1436.3105791807056 474.0987778666674L1450.3739910100367 485.88636786469584Q1440.0744383632446 501.0001590007819 1424.231217153023 510.2493323408191Q1408.3588187398364 519.4985056808562 1386.738511342462 519.4985056808562L1386.738511342462 519.4985056808562Q1366.1394060488778 519.4985056808562 1349.012387908178 509.92838310819945Q1331.8853697674786 500.3582605355427 1322.0234751651674 483.3479512067046Q1312.1615805628562 466.3376418778665 1312.1615805628562 444.9215749012504L1312.1615805628562 444.9215749012504Q1312.1615805628562 422.86360945939515 1321.8192347444096 405.7365913186954Q1331.4768889259626 388.6095731779956 1347.6410593688033 379.1561594172005Q1363.83440701461 369.7027456564054 1382.5369941154422 369.7027456564054L1382.5369941154422 369.7027456564054Q1397.6507852515283 369.7027456564054 1409.321666437695 375.15888261093835Q1420.9633704208964 380.61501956547136 1428.9579240334206 390.5060913707477L1428.9579240334206 390.5060913707477L1429.1621644541783 372.6496431559125L1448.710890441008 372.6496431559125L1448.710890441008 419.4790539154068L1434.8225418294696 420.7628508458851Q1419.7087506933835 387.1507130297247 1385.6881320357074 387.1507130297247L1385.6881320357074 387.1507130297247Q1372.033201047892 387.1507130297247 1360.3623198617252 394.18241894439024Q1348.6914386755584 401.21412485905574 1341.659732760893 414.3438661934934Q1334.6280268462274 427.47360752793105 1334.6280268462274 444.68815727752707L1334.6280268462274 444.68815727752707Q1334.6280268462274 461.08574534409144 1341.5722011519965 474.0112462577711Q1348.4871982548007 486.9367471714509 1360.3623198617252 494.289402318736Q1372.23744146865 501.6420574660211 1386.738511342462 501.6420574660211L1386.738511342462 501.6420574660211Q1403.7488206713006 501.6420574660211 1415.623942278225 494.289402318736Q1427.4698866821846 486.9367471714509 1436.3105791807056 474.0987778666674L1436.3105791807056 474.0987778666674ZM1577.2656467066354 499.30788122878766L1581.4671639336552 514.2466091470812Q1574.522989627886 518.4481263741013 1565.3029934908145 518.4481263741013L1565.3029934908145 518.4481263741013Q1557.512680299048 518.4481263741013 1552.1732521563767 513.9256599144617Q1546.80464681074 509.403193454822 1544.7038881972298 501.0001590007819L1544.7038881972298 501.0001590007819Q1523.6963020621297 519.7027461016141 1503.0971967685455 519.7027461016141L1503.0971967685455 519.7027461016141Q1488.6253040976985 519.7027461016141 1478.5299918716642 511.503952068332Q1468.4346796456298 503.3051580350498 1468.4346796456298 488.5998477404797L1468.4346796456298 488.5998477404797Q1468.4346796456298 478.53371271741076 1474.124234223886 471.0643487582641Q1479.784611599177 463.5949847991173 1489.354734171834 459.7144168047168Q1498.8956795415252 455.8338488103164 1510.0413710743146 455.8338488103164L1510.0413710743146 455.8338488103164Q1519.4947848351098 455.8338488103164 1527.4893384476336 457.6136581912068Q1535.4547148571928 459.3934675720972 1543.857749311233 462.7780231160856L1543.857749311233 462.7780231160856L1543.857749311233 453.5288497760484Q1543.857749311233 442.8208162877404 1536.7093345847056 437.7731601747233Q1529.5900970611438 432.7255040617061 1518.0359246868388 432.7255040617061L1518.0359246868388 432.7255040617061Q1501.6383366202745 432.7255040617061 1478.5299918716642 441.7704369809854L1478.5299918716642 441.7704369809854L1474.3284746446443 425.78132975593684Q1499.1290971652484 415.27753668838676 1520.5451641418645 415.27753668838676L1520.5451641418645 415.27753668838676Q1540.9108518117255 415.27753668838676 1552.1732521563767 425.25614010255936Q1563.406475298062 435.23474351673195 1563.406475298062 454.3749886620455L1563.406475298062 454.3749886620455L1563.406475298062 490.7006063539897Q1563.406475298062 501.0001590007819 1570.7591304453472 501.0001590007819L1570.7591304453472 501.0001590007819Q1573.9102683656124 501.0001590007819 1577.2656467066354 499.30788122878766L1577.2656467066354 499.30788122878766ZM1488.8295445184563 487.54946843372466Q1488.8295445184563 494.6978831602518 1494.4899218937471 498.5784511546522Q1500.1794764720034 502.4590191490527 1508.3490933023204 502.4590191490527L1508.3490933023204 502.4590191490527Q1515.4975080288473 502.4590191490527 1524.7466813688848 498.6951599665139Q1533.9958547089218 494.90212358100973 1543.857749311233 487.54946843372466L1543.857749311233 487.54946843372466L1543.857749311233 476.4329541039008Q1529.5900970611438 471.38529799088366 1513.6009898360953 470.9476399464024L1513.6009898360953 470.9476399464024Q1503.3306143922687 470.9476399464024 1496.0654908538795 475.26586598528405Q1488.8295445184563 479.5840920241658 1488.8295445184563 487.54946843372466L1488.8295445184563 487.54946843372466ZM1680.6112996101424 415.27753668838676L1689.451992108664 415.27753668838676L1689.451992108664 457.2927089585872L1671.1578858493472 457.2927089585872L1671.1578858493472 435.67240156121323Q1662.9882690190302 435.67240156121323 1653.3014376345118 441.7704369809854Q1643.6437834529588 447.8392951977921 1633.3442308061667 458.9849867305814L1633.3442308061667 458.9849867305814L1633.3442308061667 500.15402011478477L1655.8398542925033 500.15402011478477L1655.8398542925033 516.7558486021071L1590.5120968529345 516.7558486021071L1590.5120968529345 500.15402011478477L1612.774302715548 500.15402011478477L1612.774302715548 434.4177818337003L1590.5120968529345 434.4177818337003L1590.5120968529345 417.815953346378L1633.3442308061667 417.815953346378L1633.3442308061667 442.58739866401703Q1644.4899223389561 429.778606562199 1656.5692843666388 422.5426602267756Q1668.6486463943215 415.27753668838676 1680.6112996101424 415.27753668838676L1680.6112996101424 415.27753668838676ZM1783.5484716721335 494.289402318736L1790.6968863986608 509.8116742963378Q1782.9357504098598 514.4508495678391 1775.466386450713 516.960089022865Q1768.026199694532 519.4985056808562 1758.339368310013 519.4985056808562L1758.339368310013 519.4985056808562Q1742.1751978671723 519.4985056808562 1732.6050752945152 509.2864846429603Q1723.064129924824 499.10364080802975 1723.064129924824 480.1968132864396L1723.064129924824 480.1968132864396L1723.064129924824 434.4177818337003L1701.0061644829689 434.4177818337003L1701.0061644829689 417.815953346378L1723.064129924824 417.815953346378L1723.064129924824 390.3018509499898L1743.6340580154433 390.3018509499898L1743.6340580154433 417.815953346378L1776.429234148572 417.815953346378L1776.429234148572 434.4177818337003L1743.6340580154433 434.4177818337003L1743.6340580154433 480.4010537071975Q1743.6340580154433 491.13826439847094 1748.4774737077023 496.15674330852266Q1753.3208893999617 501.2043994215398 1761.4905062302782 501.2043994215398L1761.4905062302782 501.2043994215398Q1767.3843012292923 501.2043994215398 1772.6361977630677 499.4245900406493Q1777.8880942968426 497.6447806597589 1783.5484716721335 494.289402318736L1783.5484716721335 494.289402318736Z " fill="#d4152f" transform="matrix(0.4886365543292967,0,0,0.4886365543292968,0,82.70198285054524)"/></g></svg>